<svg width="960" height="1200" viewBox="0 0 960 1200" fill="none" xmlns="http://www.w3.org/2000/svg">
  <rect width="960" height="1200" fill="#06111E"/>
  <rect x="58" y="58" width="844" height="1084" rx="54" fill="url(#bg)"/>
  <path d="M274 208L374 132H586L686 208L770 392L676 474L630 1020H330L284 474L190 392L274 208Z" fill="#12314B"/>
  <path d="M378 130H582L544 318H416L378 130Z" fill="#0A2032"/>
  <path d="M479 250V1018" stroke="#8FDBFF" stroke-width="12" stroke-linecap="round"/>
  <circle cx="480" cy="574" r="164" fill="url(#halo)" fill-opacity="0.68"/>
  <path d="M352 742C386 636 446 556 544 474" stroke="#C9F1FF" stroke-width="22" stroke-linecap="round"/>
  <path d="M432 774C514 672 594 600 678 560" stroke="#59D0FF" stroke-width="16" stroke-linecap="round"/>
  <defs>
    <linearGradient id="bg" x1="120" y1="94" x2="820" y2="1098" gradientUnits="userSpaceOnUse">
      <stop stop-color="#0E2234"/>
      <stop offset="1" stop-color="#081521"/>
    </linearGradient>
    <radialGradient id="halo" cx="0" cy="0" r="1" gradientUnits="userSpaceOnUse" gradientTransform="translate(480 574) rotate(90) scale(164)">
      <stop stop-color="#4EB8FF"/>
      <stop offset="1" stop-color="#4EB8FF" stop-opacity="0"/>
    </radialGradient>
  </defs>
</svg>
